# Blender 5.0.1
# www.blender.org
mtllib Cofre.mtl
o nicole19.001
v 0.284507 -0.012388 0.024047
v 0.490805 -0.009238 0.060162
v 0.497397 -0.017895 0.001620
v 0.284507 -0.007145 0.083099
v 0.052329 -0.011876 0.027951
v 0.052329 -0.006168 0.083093
v 0.489096 -0.025167 0.250692
v 0.052329 -0.018820 0.250653
v 0.483481 -0.083114 0.757891
v 0.052329 -0.078231 0.757861
v 0.052329 -0.108356 0.942618
v 0.482016 -0.112756 0.941669
v 0.052329 -0.131055 0.983773
v 0.481284 -0.134002 0.980861
v 0.052329 -0.131055 0.983773
v 0.420737 -0.162739 0.992755
v 0.481284 -0.134002 0.980861
v 0.481528 -0.162263 0.990799
v 0.052329 -0.161757 0.993725
v 0.352134 -0.208637 0.993034
v 0.052329 -0.208148 0.993032
v -0.376626 -0.134002 0.980861
v -0.376870 -0.162263 0.990799
v -0.316079 -0.162739 0.992755
v -0.247476 -0.208637 0.993034
v -0.376626 -0.134002 0.980861
v -0.377359 -0.112756 0.941668
v -0.378824 -0.083114 0.757890
v -0.384439 -0.025167 0.250692
v -0.179849 -0.007145 0.083099
v -0.386148 -0.009238 0.060162
v -0.179849 -0.012388 0.024047
v -0.392740 -0.017895 0.001620
v -0.071145 -0.024692 0.488975
v -0.074990 -0.022160 0.263369
v -0.080240 -0.046182 0.488129
v -0.071206 -0.012877 0.264289
v -0.069192 -0.017998 0.225257
v -0.071145 -0.024692 0.488975
v -0.057473 -0.004082 0.265212
v -0.071206 -0.012877 0.264289
v -0.069192 -0.017998 0.225257
v -0.057473 -0.015897 0.489898
v -0.057473 -0.017078 0.215974
v 0.162131 -0.015897 0.489898
v 0.162131 -0.004082 0.265212
v 0.162131 -0.017078 0.215974
v 0.173850 -0.017998 0.225257
v 0.175864 -0.012877 0.264289
v 0.175803 -0.024692 0.488975
v 0.179648 -0.022160 0.263369
v 0.173850 -0.017998 0.225257
v 0.175864 -0.012877 0.264289
v 0.184897 -0.046182 0.488129
v 0.175803 -0.024692 0.488975
v 0.184897 -0.046182 0.488129
v -0.071145 -0.024692 0.488975
v -0.080240 -0.046182 0.488129
v 0.175803 -0.024692 0.488975
v 0.162131 -0.015897 0.489898
v -0.057473 -0.015897 0.489898
vn 0.0014 0.9956 -0.0934
vn 0.0136 0.9992 -0.0381
vn 0.0103 0.9894 -0.1452
vn 0.0075 1.0000 0.0009
vn -0.0000 0.9949 -0.1007
vn -0.0000 0.9999 -0.0139
vn 0.0158 0.9949 0.0998
vn -0.0000 0.9952 0.0979
vn 0.0117 0.9905 0.1374
vn -0.0000 0.9903 0.1386
vn 0.0002 0.9453 0.3263
vn 0.0100 0.9468 0.3217
vn 0.0003 0.8758 0.4828
vn 0.0093 0.8790 0.4767
vn -0.0025 0.3099 0.9508
vn 0.0101 0.3055 0.9521
vn 0.0220 0.3424 0.9393
vn 0.0277 0.3318 0.9429
vn -0.0013 0.1506 0.9886
vn 0.0025 0.0011 1.0000
vn -0.0000 -0.0149 0.9999
vn -0.0206 0.3421 0.9394
vn -0.0277 0.3318 0.9429
vn -0.0064 0.3141 0.9494
vn -0.0025 0.0011 1.0000
vn -0.0100 0.8788 0.4771
vn -0.0104 0.9469 0.3214
vn -0.0117 0.9905 0.1374
vn -0.0158 0.9949 0.0998
vn -0.0075 1.0000 0.0009
vn -0.0136 0.9992 -0.0381
vn -0.0014 0.9956 -0.0934
vn -0.0103 0.9894 -0.1452
vn -0.9212 0.3886 0.0201
vn -0.9239 0.3808 -0.0374
vn -0.9210 0.3890 0.0201
vn -0.9243 0.3802 -0.0343
vn -0.9182 0.3840 -0.0978
vn -0.5425 0.8389 0.0441
vn -0.2610 0.9620 -0.0802
vn -0.5363 0.8426 -0.0498
vn -0.3128 0.9217 -0.2293
vn -0.2803 0.9586 0.0504
vn -0.1017 0.9619 -0.2539
vn 0.2802 0.9586 0.0505
vn 0.2609 0.9620 -0.0802
vn 0.1017 0.9619 -0.2539
vn 0.3128 0.9217 -0.2293
vn 0.5363 0.8426 -0.0499
vn 0.5426 0.8388 0.0443
vn 0.9240 0.3804 -0.0381
vn 0.9182 0.3840 -0.0978
vn 0.9240 0.3807 -0.0350
vn 0.9212 0.3886 0.0206
vn 0.9210 0.3890 0.0207
vn -0.0000 -0.0393 0.9992
vn -0.0000 -0.0540 0.9985
vn -0.0000 -0.1044 0.9945
vt 0.203491 0.572021
vt 0.233276 0.577637
vt 0.235107 0.569336
vt 0.203247 0.580566
vt 0.169434 0.572754
vt 0.169434 0.580810
vt 0.232788 0.605225
vt 0.169434 0.605225
vt 0.231811 0.679443
vt 0.169434 0.678711
vt 0.169434 0.705566
vt 0.231567 0.706055
vt 0.169434 0.711914
vt 0.231567 0.712158
vt 0.222900 0.716797
vt 0.232056 0.716309
vt 0.169434 0.716553
vt 0.212891 0.723144
vt 0.169434 0.723144
vt 0.053955 0.483887
vt 0.055695 0.526611
vt 0.058044 0.483887
vt 0.053955 0.526611
vt 0.054443 0.533691
vt 0.051361 0.526367
vt 0.051361 0.483887
vt 0.051361 0.535644
vt 0.009926 0.483887
vt 0.009926 0.526367
vt 0.009926 0.535644
vt 0.006844 0.533691
vt 0.007332 0.526611
vt 0.007343 0.483887
vt 0.005608 0.526611
vt 0.003254 0.483887
vt 0.066040 0.428711
vt 0.061981 0.477051
vt 0.066040 0.478516
vt 0.061981 0.430176
vt 0.060272 0.432617
vt 0.060272 0.474121
s 1
g off
usemtl Material_#27
f 1/1/1 2/2/2 3/3/3
f 2/2/2 1/1/1 4/4/4
f 5/5/5 4/4/4 1/1/1
f 4/4/4 5/5/5 6/6/6
f 4/4/4 7/7/7 2/2/2
f 8/8/8 4/4/4 6/6/6
f 8/8/8 7/7/7 4/4/4
f 8/8/8 9/9/9 7/7/7
f 9/9/9 8/8/8 10/10/10
f 11/11/11 9/9/9 10/10/10
f 9/9/9 11/11/11 12/12/12
f 13/13/13 12/12/12 11/11/11
f 12/12/12 13/13/13 14/14/14
f 15/13/15 16/15/16 17/14/17
f 16/15/16 18/16/18 17/14/17
f 16/15/16 15/13/15 19/17/19
f 20/18/20 16/15/16 19/17/19
f 20/18/20 19/17/19 21/19/21
f 22/14/22 23/16/23 24/15/24
f 19/17/19 22/14/22 24/15/24
f 19/17/19 24/15/24 25/18/25
f 21/19/21 19/17/19 25/18/25
f 22/14/22 19/17/19 15/13/15
f 11/11/11 26/14/26 13/13/13
f 26/14/26 11/11/11 27/12/27
f 11/11/11 28/9/28 27/12/27
f 28/9/28 11/11/11 10/10/10
f 8/8/8 28/9/28 10/10/10
f 28/9/28 8/8/8 29/7/29
f 30/4/30 29/7/29 8/8/8
f 30/4/30 8/8/8 6/6/6
f 31/2/31 29/7/29 30/4/30
f 5/5/5 30/4/30 6/6/6
f 32/1/32 31/2/31 30/4/30
f 30/4/30 5/5/5 32/1/32
f 31/2/31 32/1/32 33/3/33
f 34/20/34 35/21/35 36/22/36
f 35/21/35 34/20/34 37/23/37
f 37/23/37 38/24/38 35/21/35
f 39/20/39 40/25/40 41/23/41
f 40/25/40 42/24/42 41/23/41
f 40/25/40 39/20/39 43/26/43
f 42/24/42 40/25/40 44/27/44
f 45/28/45 40/25/40 43/26/43
f 46/29/46 44/27/44 40/25/40
f 40/25/40 45/28/45 46/29/46
f 44/27/44 46/29/46 47/30/47
f 46/29/46 48/31/48 47/30/47
f 45/28/45 49/32/49 46/29/46
f 48/31/48 46/29/46 49/32/49
f 49/32/49 45/28/45 50/33/50
f 51/34/51 52/31/52 53/32/53
f 54/35/54 53/32/53 55/33/55
f 53/32/53 54/35/54 51/34/51
f 56/36/56 57/37/57 58/38/56
f 57/37/57 56/36/56 59/39/57
f 60/40/58 57/37/57 59/39/57
f 57/37/57 60/40/58 61/41/58
